<?xml version="1.0" encoding="utf-8"?>
<!-- Generator: Adobe Illustrator 17.1.0, SVG Export Plug-In . SVG Version: 6.00 Build 0)  -->
<!DOCTYPE svg PUBLIC "-//W3C//DTD SVG 1.1//EN" "http://www.w3.org/Graphics/SVG/1.1/DTD/svg11.dtd">
<svg version="1.1" id="Layer_1" xmlns="http://www.w3.org/2000/svg" xmlns:xlink="http://www.w3.org/1999/xlink" x="0px" y="0px"
	 width="327px" height="327px" viewBox="0 0 327 327" enable-background="new 0 0 327 327" xml:space="preserve">
<polygon points="62,66 21,66 49.508,90.072 41.5,115.232 24.223,117.057 25.355,145.707 30.638,150.597 20.927,182.29 12,184.169 
	12,208 115.301,270.968 123.351,285.309 133.603,301.159 141.559,306.82 165.35,309.084 179.699,306.82 183.099,293.989 
	193.668,283.799 197.009,272.855 303,207.945 303,192 288.899,166.432 292.797,162.281 300.408,159.639 303.469,128.693 
	296.303,121.523 288.386,115.485 272.54,73.595 271.032,65.5 258.957,53.593 258.58,46.423 261.599,34.724 241.975,28.686 
	241.22,11.326 226.88,7.552 212.539,16.456 198.953,8 165,8 160.837,19.878 109.135,29.188 77.812,47.49 "/>
</svg>
